<svg version="1.1" id="Vlt-icon-message" xmlns="http://www.w3.org/2000/svg" xmlns:xlink="http://www.w3.org/1999/xlink" x="0px" y="0px" viewBox="0 0 24 24" style="enable-background:new 0 0 24 24;" xml:space="preserve"><style type="text/css">
	.st0{clip-path:url(#SVGID_2_);}
	.st1{clip-path:url(#SVGID_4_);}
	.st2{clip-path:url(#SVGID_6_);}
	.st3{clip-path:url(#SVGID_8_);}
</style><path d="M22,5.6c0-1.5-1.2-2.8-2.8-2.8H4.8C3.2,2.8,2,4.1,2,5.6V15c0,1.5,1.2,2.8,2.8,2.8h2.4v3.5l2.9-3.2l0.4-0.3h8.8&#xA;&#x9;c1.5,0,2.8-1.3,2.8-2.8V5.6z M8.1,22.2c-0.8,0.9-2.3,0.3-2.3-0.9v-2.2H4.8c-2.3,0-4.1-1.8-4.1-4.1V5.6c0-2.3,1.8-4.1,4.1-4.1h14.4&#xA;&#x9;c2.3,0,4.1,1.8,4.1,4.1V15c0,2.3-1.8,4.1-4.1,4.1H11C11,19.1,8.1,22.2,8.1,22.2z M9.9,7.3H5v1.3h14V7.3H9.9z M10.1,11H5v1.3h8V11&#xA;&#x9;H10.1z"/><g><defs><polygon id="SVGID_1_" points="-132,891.6 -131,892.4 -134.4,896.4 -136.4,895 -135.6,894 -134.6,894.6 &#x9;&#x9;"/></defs><clipPath id="SVGID_2_"><use xlink:href="#SVGID_1_" style="overflow:visible;"/></clipPath><g class="st0"><defs><rect id="SVGID_3_" x="-346" y="-5123" width="638" height="10497"/></defs><clipPath id="SVGID_4_"><use xlink:href="#SVGID_3_" style="overflow:visible;"/></clipPath><rect x="-141.4" y="886.6" class="st1" width="15.4" height="14.8"/></g></g><g><defs><path id="SVGID_5_" d="M-133.5,898.8c2.7,0,4.9-2.2,4.9-4.8s-2.2-4.8-4.9-4.8c-2.7,0-4.9,2.2-4.9,4.8S-136.2,898.8-133.5,898.8z&#xA;&#x9;&#x9;&#x9; M-133.5,900.2c-3.4,0-6.1-2.8-6.1-6.2s2.8-6.2,6.1-6.2s6.2,2.8,6.2,6.2S-130.1,900.2-133.5,900.2z"/></defs><clipPath id="SVGID_6_"><use xlink:href="#SVGID_5_" style="overflow:visible;"/></clipPath><g class="st2"><defs><rect id="SVGID_7_" x="-346" y="-5123" width="638" height="10497"/></defs><clipPath id="SVGID_8_"><use xlink:href="#SVGID_7_" style="overflow:visible;"/></clipPath><rect x="-144.6" y="882.8" class="st3" width="22.3" height="22.3"/></g></g></svg>