<svg version="1.1" id="Vlt-icon-file-2" xmlns="http://www.w3.org/2000/svg" xmlns:xlink="http://www.w3.org/1999/xlink" x="0px" y="0px" viewBox="0 0 24 24" style="enable-background:new 0 0 24 24;" xml:space="preserve"><path id="path-1_1_" d="M14.4,1.6H4.1V1.5C3.9,1.5,3.7,1.8,3.7,2v20c0,0.2,0.2,0.3,0.4,0.3h16c0.2,0,0.3-0.2,0.3-0.3V7.6h-6&#xA;&#x9;C14.4,7.6,14.4,1.6,14.4,1.6z M15.8,2.7v3.7h3.7L15.8,2.7z M20.2,23.6h-16c-1,0-1.7-0.6-1.7-1.6V2c0-1,0.7-1.7,1.6-1.7h11.3l6.4,6.4&#xA;&#x9;V22C21.8,22.9,21.1,23.6,20.2,23.6z M6.1,7.8h6v1.3h-6C6.1,9.1,6.1,7.8,6.1,7.8z M6.1,10.9h12v1.3h-12C6.1,12.2,6.1,10.9,6.1,10.9z&#xA;&#x9; M6.1,13.8h12v1.3h-12C6.1,15.1,6.1,13.8,6.1,13.8z M6.1,16.8h12V18h-12C6.1,18,6.1,16.8,6.1,16.8z"/></svg>