<svg version="1.1" id="Vlt-icon-share-1" xmlns="http://www.w3.org/2000/svg" xmlns:xlink="http://www.w3.org/1999/xlink" x="0px" y="0px" viewBox="0 0 24 24" style="enable-background:new 0 0 24 24;" xml:space="preserve"><path id="path-1_1_" d="M12.8,3v12.3c0,0.4-0.3,0.6-0.7,0.6s-0.6-0.3-0.6-0.6V3.1L7.2,7.3c-0.3,0.3-0.7,0.3-1,0C6,7.1,6,6.6,6.2,6.4&#xA;&#x9;L11.7,1c0.3-0.2,0.7-0.2,0.9,0l5.6,5.5c0.3,0.3,0.3,0.7,0,0.9c-0.3,0.3-0.7,0.3-0.9,0L12.8,3z M19.1,10.1h-3.8&#xA;&#x9;c-0.4,0-0.7-0.3-0.7-0.6s0.3-0.6,0.7-0.6h4.4c0.4,0,0.6,0.3,0.6,0.6v13c0,0.4-0.3,0.6-0.6,0.6h-15c-0.4,0-0.6-0.3-0.6-0.6v-13&#xA;&#x9;c0-0.4,0.3-0.6,0.6-0.6H9c0.4,0,0.6,0.3,0.6,0.6S9.3,10.1,9,10.1H5.4v11.7h13.7V10.1z"/></svg>