<svg version="1.1" id="Vlt-icon-filter" xmlns="http://www.w3.org/2000/svg" xmlns:xlink="http://www.w3.org/1999/xlink" x="0px" y="0px" viewBox="0 0 24 24" style="enable-background:new 0 0 24 24;" xml:space="preserve"><path id="path-1_1_" d="M13.6,17.4v-6.2c0-0.2,0.1-0.3,0.2-0.5l7.1-6.8C21,3.8,21,3.7,21,3.6c0-0.2-0.2-0.4-0.4-0.4H3.4&#xA;&#x9;c-0.1,0-0.2,0-0.3,0.1C3,3.6,3,3.8,3.2,3.9l6.9,6.8c0.1,0.1,0.2,0.3,0.2,0.5v9.5L13.6,17.4z M14.9,11.5v6.2c0,0.2-0.1,0.3-0.2,0.5&#xA;&#x9;l-4.6,4.6C9.7,23.2,9,22.9,9,22.3V11.5L2.2,4.9c-0.7-0.7-0.7-1.7,0-2.4C2.6,2.2,3,2,3.4,2h17.1c0.9,0,1.7,0.7,1.7,1.7&#xA;&#x9;c0,0.5-0.2,0.9-0.5,1.2L14.9,11.5z"/></svg>