<svg xmlns="http://www.w3.org/2000/svg" width="24" height="24" viewBox="0 0 24 24" id="Vlt-icon-small-image"><path fill-rule="evenodd" d="M21.8 10.823c-2.325.13-3.663 1.058-6.048 3.574l-.025.026c-.675.713-.994 1.04-1.407 1.425-1.705 1.594-3.556 2.688-5.549 3.272a.85.85 0 0 1-.478-1.631 11.03 11.03 0 0 0 2.636-1.174c-2.642-2.53-5.548-3.811-8.729-3.59V20.5a1.3 1.3 0 0 0 1.3 1.3h17a1.3 1.3 0 0 0 1.3-1.3v-9.677zm0-1.702V3.5a1.3 1.3 0 0 0-1.3-1.3h-17a1.3 1.3 0 0 0-1.3 1.3v7.522a11.491 11.491 0 0 1 4.546.634 5.854 5.854 0 0 1 10.64-1.05C18.734 9.642 20.038 9.2 21.8 9.12zm-5.755 2.587a4.152 4.152 0 0 0-7.729.625c1.412.723 2.755 1.728 4.026 2.985.276-.223.548-.46.818-.712.38-.354.681-.664 1.334-1.352l.024-.026a31.546 31.546 0 0 1 1.527-1.52zM3.5.5h17a3 3 0 0 1 3 3v17a3 3 0 0 1-3 3h-17a3 3 0 0 1-3-3v-17a3 3 0 0 1 3-3zm7.962 3.387h1.7v2.196h-1.7V3.887zM6.397 5.823l1.395-.973 1.217 1.747-1.394.972-1.218-1.746zm10.35-1.016l1.436.91-1.153 1.821-1.436-.91 1.153-1.82z"/></svg>