<svg version="1.1" id="Vlt-icon-bin" xmlns="http://www.w3.org/2000/svg" xmlns:xlink="http://www.w3.org/1999/xlink" x="0px" y="0px" viewBox="0 0 24 24" style="enable-background:new 0 0 24 24;" xml:space="preserve"><path id="path-1_1_" d="M21.2,5.4c0,0.3-0.2,0.5-0.5,0.5h-1.6l-0.8,13.6c-0.1,1.6-1.4,2.9-3.1,2.9H8.7c-1.6,0-3-1.3-3.1-2.9L4.9,5.9&#xA;&#x9;H3.3C3,5.9,2.8,5.7,2.8,5.4c0-0.3,0.2-0.5,0.5-0.5h5.2V3.4c0-1,0.8-1.8,1.8-1.8h3.5c1,0,1.8,0.8,1.8,1.8v1.5h5.2&#xA;&#x9;C21,4.9,21.2,5.1,21.2,5.4z M9.5,3.4v1.5h5V3.4c0-0.4-0.3-0.8-0.8-0.8h-3.4C9.8,2.6,9.5,3,9.5,3.4z M17.3,19.4l0.8-13.5H5.9&#xA;&#x9;l0.8,13.5c0.1,1.1,1,1.9,2.1,1.9h6.6C16.4,21.4,17.3,20.5,17.3,19.4z M9.4,9.7h1.3v7.9H9.4V9.7z M13.6,9.7h1.3v7.9h-1.3V9.7z"/></svg>