<svg preserveAspectRatio="xMinYMin meet" viewBox="0 0 238.7 41.3" xmlns="http://www.w3.org/2000/svg"><g fill="#fff"><path d="m0 1h7.5v6h.2c1.9-4.1 6.9-7 12.9-7 7.6 0 14.2 4.6 14.2 15v25.3h-7.5v-23.2c0-7.4-4.2-10.1-8.9-10.1-6.2 0-10.9 3.9-10.9 13v20.2h-7.5z"/><path d="m46.3 23.4c0 6.9 6.4 11.4 13.3 11.4 4.6 0 7.9-2.3 10.8-5.9l5.6 4.3c-4.1 5.4-9.9 8-17.4 8-12.4 0-20.2-8.9-20.2-20.6-.1-11.7 8.4-20.6 20.2-20.6 13.8 0 19.1 10.6 19.1 20.7v2.7zm23.5-6c-.2-6.5-3.8-11.4-11.4-11.4-7.4 0-12.2 6.2-12.2 11.4z"/><path d="m92 19.3-13.9-18.3h9.6l9.5 13.9 9.4-13.9h9l-13.4 18.3 15.9 21h-9.6l-11.6-16.5-11.6 16.5h-9.2z"/><path d="m120.1 1h7v6.1h.2c.7-2.3 5.5-7.1 12.5-7.1 5.8 0 9.8 2.5 12.3 7.3 2.6-4.8 7.7-7.3 12.4-7.3 12.1 0 14.9 8.6 14.9 17.4v22.9h-7.4v-21.9c0-6-1.2-11.4-8.4-11.4s-10 4.9-10 11.8v21.5h-7.6v-20.6c0-7.4-1-12.7-8.2-12.7-5.4 0-10.2 4.1-10.2 12.9v20.4h-7.5z"/><circle cx="205.5" cy="20.2" r="4.8"/><path d="m205.4 7c6.7 0 12.3 4.8 13.5 11.2h-2.6l6.4 6.3 6.4-6.3h-3.2c-1.3-10.2-10-18.1-20.5-18.1-8.5 0-15.9 5.2-19 12.6l6.4 2.5c2.1-4.9 6.9-8.2 12.6-8.2z"/><path d="m205.4 34.4c-6.6 0-12.1-4.7-13.4-10.9h2.9l-6.4-6.3-6.4 6.3h2.9c1.4 10 10 17.7 20.4 17.7 8.5 0 15.8-5.2 19-12.6l-6.4-2.5c-2.2 4.9-7 8.3-12.6 8.3z"/><path d="m238.7 5c0 2.6-2.1 4.8-4.8 4.8s-4.8-2.2-4.8-4.8 2.1-4.8 4.8-4.8c2.7-.1 4.8 2.1 4.8 4.8zm-1 0c0-2.1-1.7-3.9-3.8-3.9-2.2 0-3.9 1.8-3.9 3.9s1.7 3.9 3.9 3.9 3.8-1.8 3.8-3.9zm-3.1.5 1.4 2h-1l-1.3-1.9h-.7v1.9h-.8v-5.1h1.8c1.2 0 1.7.7 1.7 1.6.1.8-.4 1.3-1.1 1.5zm-1.6-.7h.8c.8 0 1-.4 1-.9s-.4-.9-1-.9h-.8z"/></g></svg>